<svg width="21" height="26" viewBox="0 0 21 26" fill="none" xmlns="http://www.w3.org/2000/svg">
<path d="M9.89453 0.189209C10.1628 0.137627 10.4388 0.137627 10.707 0.189209L18.707 1.72729C19.7192 1.92206 20.4512 2.80785 20.4512 3.83862V18.9128C20.4512 19.7191 19.9996 20.4578 19.2822 20.8259L11.2822 24.9285C10.6663 25.2443 9.93526 25.2443 9.31934 24.9285L1.31934 20.8259C0.601992 20.4578 0.150391 19.7191 0.150391 18.9128V3.83862C0.150391 2.80785 0.882346 1.92206 1.89453 1.72729L9.89453 0.189209Z" fill="#600073" stroke="black" stroke-width="0.3"/>
<path d="M7.72917 15.7851C7.72917 17.7061 6.29012 19.2634 4.51497 19.2634C2.73982 19.2634 1.30078 17.7061 1.30078 15.7851C1.30078 13.8642 2.73982 12.3069 4.51497 12.3069C6.29012 12.3069 7.72917 13.8642 7.72917 15.7851ZM2.26504 15.7851C2.26504 17.1298 3.27237 18.2199 4.51497 18.2199C5.75758 18.2199 6.76491 17.1298 6.76491 15.7851C6.76491 14.4404 5.75758 13.3504 4.51497 13.3504C3.27237 13.3504 2.26504 14.4404 2.26504 15.7851Z" fill="#E0CDBC" stroke="black" stroke-width="0.1"/>
<path d="M19.2995 10.2197C19.2995 12.1407 17.8604 13.698 16.0853 13.698C14.3101 13.698 12.8711 12.1407 12.8711 10.2197C12.8711 8.29872 14.3101 6.74146 16.0853 6.74146C17.8604 6.74146 19.2995 8.29872 19.2995 10.2197ZM13.8354 10.2197C13.8354 11.5644 14.8427 12.6545 16.0853 12.6545C17.3279 12.6545 18.3352 11.5644 18.3352 10.2197C18.3352 8.87502 17.3279 7.78493 16.0853 7.78493C14.8427 7.78493 13.8354 8.87502 13.8354 10.2197Z" fill="#E0CDBC" stroke="black" stroke-width="0.1"/>
<path d="M8.33149 6.09237C8.35938 6.06219 8.3959 6.04133 8.43607 6.03263L10.9695 5.48433C11.1605 5.44299 11.2913 5.672 11.1587 5.81554L7.7909 9.45998C7.75304 9.50095 7.69979 9.52425 7.64401 9.52425H5.61729C5.44289 9.52425 5.35204 9.3166 5.4704 9.18851L8.33149 6.09237Z" fill="#FFF3EA" stroke="black" stroke-width="0.1"/>
<path d="M12.1783 5.40301C12.2098 5.36887 12.2523 5.34678 12.2984 5.34055L14.7984 5.00237L16.0841 4.82845L16.727 4.7415L16.8951 4.71875C17.0088 4.70338 17.0642 4.85294 16.968 4.91541L16.5662 5.17628L15.7627 5.69802L14.2053 6.70924C14.1729 6.73029 14.135 6.74149 14.0964 6.74149H11.3985C11.2241 6.74149 11.1333 6.53385 11.2517 6.40576L12.1783 5.40301Z" fill="#FFF3EA" stroke="black" stroke-width="0.1"/>
<path d="M9.2883 3.5585C9.18427 3.44593 9.26412 3.26343 9.4174 3.26343H9.81917H10.6227H12.0508C12.129 3.26343 12.1769 3.34925 12.1359 3.41588L10.9734 5.30283C10.9552 5.33238 10.923 5.35038 10.8883 5.35038H9.17199C9.09899 5.35038 9.05059 5.2747 9.08121 5.20844L9.65846 3.95908L9.33704 3.61125L9.2883 3.5585Z" fill="#FFF3EA" stroke="black" stroke-width="0.1"/>
<path d="M5.46805 10.1075C5.3757 9.9326 5.56613 9.74408 5.74008 9.8382L6.42356 10.208C6.43818 10.2159 6.45454 10.2201 6.47115 10.2201H7.61982C7.68923 10.2201 7.75369 10.2561 7.7901 10.3152L11.0625 15.6271C11.1773 15.8133 10.9526 16.0221 10.7752 15.8942L9.6714 15.0978C9.66386 15.0924 9.65558 15.088 9.64683 15.0849L7.80435 14.4202C7.75748 14.4033 7.71862 14.3696 7.69535 14.3255L5.46805 10.1075Z" fill="#FFF3EA" stroke="black" stroke-width="0.1"/>
</svg>
